<svg id="Icon_Help" data-name="Icon / Help" xmlns="http://www.w3.org/2000/svg" width="39.397" height="45.678" viewBox="0 0 39.397 45.678">
  <path id="Path_801" data-name="Path 801" d="M315.931,431.616a3.071,3.071,0,0,0-3.07,3.07h0v17.608h0v13.924a3.07,3.07,0,0,0,5.26,2.15h0l4.358-4.439a3.072,3.072,0,0,1,2.191-.919h16.516a3.069,3.069,0,0,0,3.069-3.069h0V434.686a3.069,3.069,0,0,0-3.068-3.07H315.931Z" transform="translate(-308.861 -427.616)" fill="none"/>
  <path id="Path_827" data-name="Path 827" d="M341.189,427.616H315.934a7.079,7.079,0,0,0-7.073,7.07v31.532a6.981,6.981,0,0,0,2.234,5.157,7.112,7.112,0,0,0,4.866,1.919,6.994,6.994,0,0,0,5.015-2.123l4.085-4.161h16.128a7.076,7.076,0,0,0,7.069-7.07V434.686A7.078,7.078,0,0,0,341.189,427.616Zm3.069,32.324h0a3.069,3.069,0,0,1-3.069,3.069H324.678a3.072,3.072,0,0,0-2.191.919l-4.358,4.439a3,3,0,0,1-2.168.926h-.039a3.067,3.067,0,0,1-3.058-3.076V434.686a3.071,3.071,0,0,1,3.07-3.07H341.19a3.069,3.069,0,0,1,3.068,3.07Z" transform="translate(-308.861 -427.616)" fill="#ffa727"/>
  <path id="Path_828" data-name="Path 828" d="M328.558,437.991a10,10,0,1,0,10,10A10,10,0,0,0,328.558,437.991Zm.9,15.739a1.521,1.521,0,0,1-1.143.477,1.5,1.5,0,0,1-1.134-.477,1.657,1.657,0,0,1-.45-1.179,1.68,1.68,0,0,1,.45-1.2,1.493,1.493,0,0,1,1.134-.474,1.521,1.521,0,0,1,1.143.477,1.651,1.651,0,0,1,.459,1.2A1.63,1.63,0,0,1,329.458,453.73Zm2.311-7.939a3.906,3.906,0,0,1-.5.819q-.3.378-.63.729a7.893,7.893,0,0,0-.612.729,3.428,3.428,0,0,0-.441.8,2.088,2.088,0,0,0-.108.963l-2.315,0a2.762,2.762,0,0,1,.045-1.116,3.813,3.813,0,0,1,.387-.936,5.172,5.172,0,0,1,.563-.79q.315-.36.6-.693a4.637,4.637,0,0,0,.477-.648,1.242,1.242,0,0,0,.2-.659,1.056,1.056,0,0,0-.333-.846,1.285,1.285,0,0,0-.873-.288,1.694,1.694,0,0,0-.891.234,4,4,0,0,0-.747.594l-1.458-1.332a4.943,4.943,0,0,1,1.5-1.188,4.159,4.159,0,0,1,1.935-.45,4.782,4.782,0,0,1,1.341.18,2.976,2.976,0,0,1,1.08.558,2.58,2.58,0,0,1,.72.963,3.345,3.345,0,0,1,.264,1.375A2.387,2.387,0,0,1,331.769,445.791Z" transform="translate(-308.861 -427.616)" fill="#ffa727"/>
</svg>
