<svg xmlns="http://www.w3.org/2000/svg" width="49.63" height="55.667" viewBox="0 0 49.63 55.667">
  <defs>
    <style>
      .a {
        fill: #ffa727;
      }

      .b {
        fill: #f06748;
      }
    </style>
  </defs>
  <path class="a"
    d="M973.978,3114.919h-23.5a4.792,4.792,0,0,0-4.793,4.792v11.751h12.656a3.888,3.888,0,0,1,3.888,3.888v12.656h11.751a4.793,4.793,0,0,0,4.792-4.793v-23.5A4.792,4.792,0,0,0,973.978,3114.919Z"
    transform="translate(-929.14 -3114.919)" />
  <path class="b"
    d="M945.683,3143.213v-11.751H933.028a3.888,3.888,0,0,0-3.888,3.888v31.341a3.888,3.888,0,0,0,6.341,3.016l5.27-4.286a3.888,3.888,0,0,1,2.453-.872h15.135a3.888,3.888,0,0,0,3.888-3.888v-12.655H950.476A4.793,4.793,0,0,1,945.683,3143.213Z"
    transform="translate(-929.14 -3114.919)" />
</svg>