<svg xmlns="http://www.w3.org/2000/svg" width="38.571" height="45" viewBox="0 0 38.571 45">
  <defs>
    <style>.a{fill:#ffa727;}
    </style>
  </defs>
  <g transform="translate(9.643)">
    <path class="a" d="M14.643,23.5c5.326,0,9.643-6.644,9.643-12.857S19.969,1,14.643,1,5,4.43,5,10.643,9.317,23.5,14.643,23.5ZM13.036,10.643A3.215,3.215,0,0,0,16.25,7.429a3.215,3.215,0,0,0,3.214,3.214h1.607c0,4.776-3.243,9.643-6.429,9.643s-6.429-4.866-6.429-9.643Z" transform="translate(-5 -1)"/>
  </g>
  <g transform="translate(0 25.714)">
    <path class="a" d="M38.392,14.169A6.43,6.43,0,0,0,32.086,9H27.714L24.5,21.857l-1.607-9.643L24.5,9H18.071l1.607,3.214-1.607,9.643L14.857,9H10.486a6.429,6.429,0,0,0-6.3,5.169L2,25.071a3.215,3.215,0,0,0,3.214,3.214H37.357a3.215,3.215,0,0,0,3.214-3.214Z" transform="translate(-2 -9)"/>
  </g>
</svg>