<svg width="40" height="34" viewBox="0 0 40 34" fill="none" xmlns="http://www.w3.org/2000/svg">
<g id="Group 711">
<path id="Path 826" fill-rule="evenodd" clip-rule="evenodd" d="M24.368 10.233H38.208C38.5581 10.233 38.8938 10.3721 39.1414 10.6196C39.3889 10.8672 39.528 11.2029 39.528 11.553V32.653C39.528 33.0031 39.3889 33.3388 39.1414 33.5864C38.8938 33.8339 38.5581 33.973 38.208 33.973H1.32C0.969914 33.973 0.634168 33.8339 0.38662 33.5864C0.139072 33.3388 0 33.0031 0 32.653V1.32C0 0.969914 0.139072 0.634168 0.38662 0.38662C0.634168 0.139072 0.969914 0 1.32 0H23.048C23.3981 0 23.7338 0.139072 23.9814 0.38662C24.2289 0.634168 24.368 0.969914 24.368 1.32V10.233ZM27.029 22.923H34.648V31.33H36.89V12.872H24.368V31.331H27.029V22.923ZM8.449 22.923H16.068V31.33H21.73V2.639H2.639V31.331H8.449V22.924V22.923ZM5.06 17.432H19.46V20.369H5.06V17.432ZM5.06 11.083H19.46V14.02H5.06V11.083ZM5.06 4.735H19.46V7.672H5.06V4.735Z" fill="#606060"/>
</g>
</svg>
